<svg xmlns="http://www.w3.org/2000/svg" viewBox="0 0 27 27"><path d="M1 1h7v7h-7zM11 1h2v1h-2zM14 1h3v2h-1v-1h-1v1h-1zM19 1h7v7h-7zM2 2v5h5v-5zM9 2h2v1h1v1h-1v2h2v-1h2v-1h3v1h-1v1h1v4h-2v-1h-1v2h-1v1h-1v3h-1v1h1v1h-1v1h-1v-1h-2v-1h2v-1h-1v-1h-3v1h2v1h-3v-2h-1v-2h2v1h1v-1h-1v-1h2v1h2v1h1v-1h-1v-1h2v-4h-1v2h-1v-2h-1v-1h-1v-1h1v-2h-1zM20 2v5h5v-5zM3 3h3v3h-3zM21 3h3v3h-3zM12 4h1v1h-1zM9 7h1v1h-1zM14 7v1h1v-1zM16 7v1h1v-1zM1 9h1v1h-1zM3 9h1v1h1v-1h1v1h1v1h-2v1h-1v-1h-1v2h-2v-2h1v-1h1zM7 9h1v1h-1zM21 9h1v1h-1zM24 9h1v1h1v10h-1v1h1v1h-2v-2h-1v-1h1v-2h1v-1h-4v-1h1v-1h1v1h2v-2h-1v-1h-3v-1h3zM9 10h2v1h-2zM18 10h2v1h-1v1h-1v1h1v-1h2v1h-1v1h1v1h-1v2h3v1h-1v5h2v1h-2v1h1v1h-2v-2h-1v-1h1v-1h-2v1h-1v-1h-1v-2h-1v3h-1v-2h-2v-1h-1v1h-2v-2h-1v-1h2v1h1v-1h1v-1h1v1h1v1h-1v1h1v-1h1v-3h1v-2h-2v-1h-1v-1h3v-1h1zM2 14h1v1h-1zM4 14h1v2h1v2h-1v-1h-1v-1h-1v-1h1zM1 15h1v1h-1zM14 15h1v1h-1zM2 16h1v1h-1zM1 17h1v1h-1zM3 17h1v1h-1zM7 17h1v1h-1zM18 18v3h3v-3zM1 19h7v7h-7zM19 19h1v1h-1zM2 20v5h5v-5zM3 21h3v3h-3zM9 21h1v1h-1zM12 21h1v2h-1zM10 22h1v1h1v1h1v1h-1v1h-3v-1h2v-1h-2v-1h1zM14 23h1v1h-1zM17 23h1v1h1v1h-1v1h-2v-2h1zM25 23h1v1h-1zM24 24h1v1h1v1h-2zM13 25h1v1h-1zM19 25h1v1h-1z"/></svg>